<svg width="50" height="50" viewBox="0 0 50 50" fill="none" xmlns="http://www.w3.org/2000/svg">
<g clip-path="url(#clip0_156_2)">
<path fill-rule="evenodd" clip-rule="evenodd" d="M25 2C12.2925 2 2 12.5528 2 25.5818C2 36.0167 8.58375 44.8304 17.7262 47.9549C18.8762 48.1613 19.3075 47.4538 19.3075 46.8348C19.3075 46.2748 19.2787 44.4177 19.2787 42.4427C13.5 43.5334 12.005 40.9983 11.545 39.6719C11.2863 38.9939 10.165 36.901 9.1875 36.3409C8.3825 35.8988 7.2325 34.8081 9.15875 34.7786C10.97 34.7492 12.2638 36.4883 12.695 37.1958C14.765 40.7625 18.0712 39.7603 19.3937 39.1413C19.595 37.6085 20.1987 36.5768 20.86 35.9872C15.7425 35.3977 10.395 33.3637 10.395 24.3437C10.395 21.7792 11.2863 19.6568 12.7525 18.0061C12.5225 17.4166 11.7175 14.9994 12.9825 11.757C12.9825 11.757 14.9087 11.1379 19.3075 14.1741C21.1475 13.6435 23.1025 13.3782 25.0575 13.3782C27.0125 13.3782 28.9675 13.6435 30.8075 14.1741C35.2062 11.1085 37.1325 11.757 37.1325 11.757C38.3975 14.9994 37.5925 17.4166 37.3625 18.0061C38.8287 19.6568 39.72 21.7497 39.72 24.3437C39.72 33.3932 34.3437 35.3977 29.2262 35.9872C30.06 36.7241 30.7787 38.139 30.7787 40.3498C30.7787 43.5039 30.75 46.0389 30.75 46.8348C30.75 47.4538 31.1812 48.1908 32.3312 47.9549C36.8972 46.3745 40.8647 43.3659 43.6755 39.3523C46.4864 35.3389 47.9988 30.5228 48 25.5818C48 12.5528 37.7075 2 25 2Z" stroke="white" stroke-width="2.208" stroke-linejoin="round"/>
</g>
<defs>
<clipPath id="clip0_156_2">
<rect width="50" height="50" fill="white"/>
</clipPath>
</defs>
</svg>
