<svg width="50" height="50" viewBox="0 0 50 50" fill="none" xmlns="http://www.w3.org/2000/svg">
<path d="M47.2695 21.4289C47.5026 22.8474 47.6388 24.3046 47.6388 25.8394C47.6388 32.931 45.1128 38.915 40.722 42.9757C36.875 46.5313 31.6099 48.6296 25.3149 48.6296C16.2026 48.6296 8.33386 43.3838 4.50634 35.7675C2.91317 32.62 2 29.0841 2 25.3148C2 21.5455 2.91317 18.0095 4.50634 14.862C8.33386 7.24583 16.2026 2 25.3149 2C31.6099 2 36.875 4.31206 40.8968 8.08127L34.2521 14.726C31.8234 12.4139 28.7538 11.2288 25.3149 11.2288C19.2335 11.2288 14.0848 15.3283 12.2391 20.8656C11.7728 22.2645 11.5008 23.7604 11.5008 25.3148C11.5008 26.8692 11.7533 28.3651 12.2391 29.764C14.0848 35.3012 19.2335 39.4009 25.3149 39.4009C28.4624 39.4009 31.124 38.5459 33.2223 37.147C35.6704 35.4957 37.322 33.067 37.8853 30.1915H25.3149V21.4289H47.2695Z" stroke="white" stroke-width="2.33148" stroke-linejoin="round"/>
</svg>
