<svg width="50" height="50" viewBox="0 0 50 50" fill="none" xmlns="http://www.w3.org/2000/svg">
<path fill-rule="evenodd" clip-rule="evenodd" d="M14.2355 5.93891C13.4425 4.08982 12.5617 4.04489 11.8127 4.04489C11.1515 4 10.4438 4 9.69479 4C8.99225 4 7.80155 4.26941 6.78907 5.39736C5.77401 6.52267 3 9.18273 3 14.6349C3 20.0899 6.87689 25.3624 7.40637 26.0835C7.93326 26.8047 14.8966 38.3403 25.915 42.8044C35.0789 46.5 36.9311 45.7789 38.9145 45.5518C40.8956 45.3273 45.3047 42.8943 46.2293 40.2793C47.1101 37.7117 47.1101 35.4584 46.8465 35.0064C46.5829 34.5575 45.8315 34.2853 44.7753 33.6991C43.6724 33.1599 38.3851 30.4551 37.3727 30.0934C36.3576 29.7339 35.6525 29.5542 34.9474 30.6348C34.2422 31.7628 32.1706 34.2405 31.5122 34.9617C30.8924 35.6828 30.2336 35.7727 29.1748 35.2313C28.0745 34.6921 24.5926 33.5194 20.4498 29.7339C17.2315 26.802 15.0723 23.1538 14.4111 22.0736C13.7963 20.9456 14.3232 20.3591 14.8966 19.8176C15.3822 19.3236 15.9995 18.5126 16.529 17.8813C17.0558 17.2474 17.2315 16.7533 17.6293 16.0322C17.9808 15.3111 17.805 14.6349 17.5414 14.096C17.2756 13.5994 15.2066 8.14724 14.2355 5.93891Z" stroke="white" stroke-width="4.47084" stroke-linejoin="round"/>
</svg>
