<svg width="50" height="50" viewBox="0 0 50 50" fill="none" xmlns="http://www.w3.org/2000/svg">
<g clip-path="url(#clip0_156_13)">
<path fill-rule="evenodd" clip-rule="evenodd" d="M48 25C48 37.7024 37.7025 48 25 48C12.2975 48 2 37.7024 2 25C2 12.2974 12.2975 2 25 2C37.7025 2 48 12.2974 48 25ZM25.8241 18.9796C23.5871 19.9101 19.1161 21.8359 12.4111 24.7571C11.3223 25.1902 10.752 25.6139 10.7 26.0279C10.6123 26.728 11.4889 27.0035 12.6825 27.3789C12.8448 27.4299 13.0131 27.4828 13.1855 27.5387C14.3599 27.9205 15.9396 28.3672 16.7608 28.3849C17.5057 28.401 18.3371 28.094 19.255 27.4635C25.5196 23.2348 28.7536 21.0974 28.9565 21.0511C29.0998 21.0187 29.2983 20.9778 29.4328 21.0974C29.5674 21.217 29.554 21.4433 29.5398 21.504C29.4531 21.8743 26.0123 25.0731 24.2316 26.7284C23.6766 27.2446 23.2828 27.6105 23.2023 27.6942C23.022 27.8814 22.8383 28.0585 22.6616 28.2287C21.5707 29.2805 20.7524 30.0692 22.7069 31.3572C23.646 31.9761 24.3977 32.4879 25.1475 32.9985C25.9663 33.5562 26.783 34.1124 27.8398 34.8051C28.1089 34.9815 28.3661 35.1649 28.6165 35.3433C29.5694 36.0228 30.4255 36.6332 31.4833 36.5356C32.0978 36.4793 32.7326 35.9013 33.0551 34.1777C33.8171 30.1044 35.3148 21.2786 35.661 17.6419C35.6913 17.3232 35.6532 16.9155 35.6223 16.7364C35.5918 16.5574 35.5278 16.3024 35.2951 16.1136C35.0195 15.89 34.594 15.8428 34.4038 15.846C33.5388 15.8614 32.2114 16.3229 25.8241 18.9796Z" stroke="white" stroke-width="2.3" stroke-linejoin="round"/>
</g>
<defs>
<clipPath id="clip0_156_13">
<rect width="50" height="50" fill="white"/>
</clipPath>
</defs>
</svg>
